<?xml version="1.0" encoding="UTF-8" standalone="no"?>
<!DOCTYPE svg PUBLIC "-//W3C//DTD SVG 1.1//EN"
 "http://www.w3.org/Graphics/SVG/1.1/DTD/svg11.dtd">
<!-- Generated by graphviz version 2.43.0 (0)
 -->
<!-- Title: %3 Pages: 1 -->
<svg width="538pt" height="116pt"
 viewBox="0.00 0.00 537.50 116.00" xmlns="http://www.w3.org/2000/svg" xmlns:xlink="http://www.w3.org/1999/xlink">
<g id="graph0" class="graph" transform="scale(1 1) rotate(0) translate(4 112)">
<title>%3</title>
<polygon fill="white" stroke="transparent" points="-4,4 -4,-112 533.5,-112 533.5,4 -4,4"/>
<!-- algebra -->
<g id="node1" class="node">
<title>algebra</title>
<polygon fill="none" stroke="black" points="351.5,-108 194.5,-108 194.5,-72 351.5,-72 351.5,-108"/>
<text text-anchor="middle" x="273" y="-86.3" font-family="mono" font-size="14.00">algebra.Endpoints</text>
</g>
<!-- json -->
<g id="node2" class="node">
<title>json</title>
<polygon fill="none" stroke="black" points="272,-36 0,-36 0,0 272,0 272,-36"/>
<text text-anchor="middle" x="136" y="-14.3" font-family="mono" font-size="14.00">algebra.JsonEntitiesFromSchemas</text>
</g>
<!-- json&#45;&gt;algebra -->
<g id="edge1" class="edge">
<title>json&#45;&gt;algebra</title>
<path fill="none" stroke="black" d="M169.51,-36.12C187.84,-45.49 210.74,-57.19 230.33,-67.2"/>
<polygon fill="none" stroke="black" points="228.86,-70.38 239.36,-71.81 232.04,-64.14 228.86,-70.38"/>
</g>
<!-- auth -->
<g id="node3" class="node">
<title>auth</title>
<polygon fill="none" stroke="black" points="529.5,-36 290.5,-36 290.5,0 529.5,0 529.5,-36"/>
<text text-anchor="middle" x="410" y="-14.3" font-family="mono" font-size="14.00">algebra.BasicAuthentication</text>
</g>
<!-- auth&#45;&gt;algebra -->
<g id="edge2" class="edge">
<title>auth&#45;&gt;algebra</title>
<path fill="none" stroke="black" d="M376.49,-36.12C358.16,-45.49 335.26,-57.19 315.67,-67.2"/>
<polygon fill="none" stroke="black" points="313.96,-64.14 306.64,-71.81 317.14,-70.38 313.96,-64.14"/>
</g>
</g>
</svg>
