<?xml version="1.0" encoding="UTF-8" standalone="no"?>
<!DOCTYPE svg PUBLIC "-//W3C//DTD SVG 1.1//EN"
 "http://www.w3.org/Graphics/SVG/1.1/DTD/svg11.dtd">
<!-- Generated by graphviz version 2.43.0 (0)
 -->
<!-- Title: %3 Pages: 1 -->
<svg width="414pt" height="305pt"
 viewBox="0.00 0.00 414.00 305.00" xmlns="http://www.w3.org/2000/svg" xmlns:xlink="http://www.w3.org/1999/xlink">
<g id="graph0" class="graph" transform="scale(1 1) rotate(0) translate(4 301)">
<title>%3</title>
<polygon fill="white" stroke="transparent" points="-4,4 -4,-301 410,-301 410,4 -4,4"/>
<!-- algebraEndpoints -->
<g id="node1" class="node">
<title>algebraEndpoints</title>
<polygon fill="lightGray" stroke="lightGray" points="313.5,-297 156.5,-297 156.5,-261 313.5,-261 313.5,-297"/>
<text text-anchor="middle" x="235" y="-275.3" font-family="mono" font-size="14.00">algebra.Endpoints</text>
</g>
<!-- serverEndpoints -->
<g id="node2" class="node">
<title>serverEndpoints</title>
<polygon fill="lightGray" stroke="lightGray" points="389.5,-210 240.5,-210 240.5,-174 389.5,-174 389.5,-210"/>
<text text-anchor="middle" x="315" y="-188.3" font-family="mono" font-size="14.00">server.Endpoints</text>
</g>
<!-- serverEndpoints&#45;&gt;algebraEndpoints -->
<g id="edge1" class="edge">
<title>serverEndpoints&#45;&gt;algebraEndpoints</title>
<path fill="none" stroke="black" d="M298.81,-210.2C287.1,-222.64 271.11,-239.64 258.06,-253.5"/>
<polygon fill="none" stroke="black" points="255.47,-251.14 251.17,-260.82 260.57,-255.94 255.47,-251.14"/>
<text text-anchor="middle" x="317.5" y="-231.8" font-family="Times,serif" font-size="14.00">implement</text>
</g>
<!-- Authentication -->
<g id="node3" class="node">
<title>Authentication</title>
<polygon fill="none" stroke="black" points="222,-210 90,-210 90,-174 222,-174 222,-210"/>
<text text-anchor="middle" x="156" y="-188.3" font-family="mono" font-size="14.00">Authentication</text>
</g>
<!-- Authentication&#45;&gt;algebraEndpoints -->
<g id="edge2" class="edge">
<title>Authentication&#45;&gt;algebraEndpoints</title>
<path fill="none" stroke="black" d="M171.99,-210.2C183.55,-222.64 199.34,-239.64 212.23,-253.5"/>
<polygon fill="black" stroke="black" points="209.67,-255.88 219.04,-260.82 214.79,-251.12 209.67,-255.88"/>
<text text-anchor="middle" x="224" y="-231.8" font-family="Times,serif" font-size="14.00">enrich</text>
</g>
<!-- AuthenticationEndpoints -->
<g id="node4" class="node">
<title>AuthenticationEndpoints</title>
<polygon fill="none" stroke="black" points="206,-123 0,-123 0,-87 206,-87 206,-123"/>
<text text-anchor="middle" x="103" y="-101.3" font-family="mono" font-size="14.00">AuthenticationEndpoints</text>
</g>
<!-- AuthenticationEndpoints&#45;&gt;Authentication -->
<g id="edge3" class="edge">
<title>AuthenticationEndpoints&#45;&gt;Authentication</title>
<path fill="none" stroke="black" d="M113.73,-123.2C121.27,-135.3 131.49,-151.7 140,-165.33"/>
<polygon fill="black" stroke="black" points="137.03,-167.19 145.29,-173.82 142.97,-163.49 137.03,-167.19"/>
<text text-anchor="middle" x="145.5" y="-144.8" font-family="Times,serif" font-size="14.00">use</text>
</g>
<!-- ServerAuthentication -->
<g id="node5" class="node">
<title>ServerAuthentication</title>
<polygon fill="none" stroke="black" points="406,-123 224,-123 224,-87 406,-87 406,-123"/>
<text text-anchor="middle" x="315" y="-101.3" font-family="mono" font-size="14.00">ServerAuthentication</text>
</g>
<!-- ServerAuthentication&#45;&gt;serverEndpoints -->
<g id="edge5" class="edge">
<title>ServerAuthentication&#45;&gt;serverEndpoints</title>
<path fill="none" stroke="black" d="M315,-123.2C315,-134.84 315,-150.45 315,-163.76"/>
<polygon fill="black" stroke="black" points="311.5,-163.82 315,-173.82 318.5,-163.82 311.5,-163.82"/>
<text text-anchor="middle" x="335" y="-144.8" font-family="Times,serif" font-size="14.00">apply</text>
</g>
<!-- ServerAuthentication&#45;&gt;Authentication -->
<g id="edge4" class="edge">
<title>ServerAuthentication&#45;&gt;Authentication</title>
<path fill="none" stroke="black" d="M271.93,-123.07C259.49,-128.41 246.04,-134.6 234,-141 218.74,-149.12 202.55,-159.23 188.89,-168.23"/>
<polygon fill="none" stroke="black" points="186.7,-165.49 180.32,-173.96 190.58,-171.31 186.7,-165.49"/>
<text text-anchor="middle" x="272.5" y="-144.8" font-family="Times,serif" font-size="14.00">implement</text>
</g>
<!-- Server -->
<g id="node6" class="node">
<title>Server</title>
<polygon fill="none" stroke="black" points="242,-36 176,-36 176,0 242,0 242,-36"/>
<text text-anchor="middle" x="209" y="-14.3" font-family="mono" font-size="14.00">Server</text>
</g>
<!-- Server&#45;&gt;AuthenticationEndpoints -->
<g id="edge6" class="edge">
<title>Server&#45;&gt;AuthenticationEndpoints</title>
<path fill="none" stroke="black" d="M187.55,-36.2C171.74,-48.87 150.06,-66.27 132.6,-80.26"/>
<polygon fill="black" stroke="black" points="130.03,-77.84 124.42,-86.82 134.41,-83.3 130.03,-77.84"/>
<text text-anchor="middle" x="175.5" y="-57.8" font-family="Times,serif" font-size="14.00">use</text>
</g>
<!-- Server&#45;&gt;ServerAuthentication -->
<g id="edge7" class="edge">
<title>Server&#45;&gt;ServerAuthentication</title>
<path fill="none" stroke="black" d="M230.45,-36.2C246.26,-48.87 267.94,-66.27 285.4,-80.26"/>
<polygon fill="black" stroke="black" points="283.59,-83.3 293.58,-86.82 287.97,-77.84 283.59,-83.3"/>
<text text-anchor="middle" x="288" y="-57.8" font-family="Times,serif" font-size="14.00">apply</text>
</g>
</g>
</svg>
