<?xml version="1.0" encoding="UTF-8" standalone="no"?>
<!DOCTYPE svg PUBLIC "-//W3C//DTD SVG 1.1//EN"
 "http://www.w3.org/Graphics/SVG/1.1/DTD/svg11.dtd">
<!-- Generated by graphviz version 2.43.0 (0)
 -->
<!-- Title: %3 Pages: 1 -->
<svg width="930pt" height="218pt"
 viewBox="0.00 0.00 930.28 218.00" xmlns="http://www.w3.org/2000/svg" xmlns:xlink="http://www.w3.org/1999/xlink">
<g id="graph0" class="graph" transform="scale(1 1) rotate(0) translate(4 214)">
<title>%3</title>
<polygon fill="white" stroke="transparent" points="-4,4 -4,-214 926.28,-214 926.28,4 -4,4"/>
<!-- doc -->
<g id="node1" class="node">
<title>doc</title>
<polygon fill="none" stroke="black" points="584.28,-210 327.05,-192 584.28,-174 841.51,-192 584.28,-210"/>
<text text-anchor="middle" x="584.28" y="-188.3" font-family="Times,serif" font-size="14.00">Do I want to publish documentation?</text>
</g>
<!-- codec -->
<g id="node2" class="node">
<title>codec</title>
<polygon fill="none" stroke="black" points="349.28,-123 0.22,-105 349.28,-87 698.34,-105 349.28,-123"/>
<text text-anchor="middle" x="349.28" y="-101.3" font-family="Times,serif" font-size="14.00">Do I want to implement both a client and a server?</text>
</g>
<!-- doc&#45;&gt;codec -->
<g id="edge2" class="edge">
<title>doc&#45;&gt;codec</title>
<path fill="none" stroke="black" d="M544.68,-176.68C504.91,-162.29 443.48,-140.07 400.13,-124.39"/>
<polygon fill="black" stroke="black" points="401.22,-121.06 390.62,-120.95 398.84,-127.65 401.22,-121.06"/>
<text text-anchor="middle" x="490.28" y="-144.8" font-family="Times,serif" font-size="14.00">no</text>
</g>
<!-- JsonEntitiesFromSchemas -->
<g id="node3" class="node">
<title>JsonEntitiesFromSchemas</title>
<polygon fill="none" stroke="black" points="922.28,-123 716.28,-123 716.28,-87 922.28,-87 922.28,-123"/>
<text text-anchor="middle" x="819.28" y="-101.3" font-family="mono" font-size="14.00">JsonEntitiesFromSchemas</text>
</g>
<!-- doc&#45;&gt;JsonEntitiesFromSchemas -->
<g id="edge1" class="edge">
<title>doc&#45;&gt;JsonEntitiesFromSchemas</title>
<path fill="none" stroke="black" d="M623.88,-176.68C661.94,-162.91 719.86,-141.96 762.76,-126.44"/>
<polygon fill="black" stroke="black" points="764.01,-129.71 772.23,-123.02 761.63,-123.13 764.01,-129.71"/>
<text text-anchor="middle" x="728.78" y="-144.8" font-family="Times,serif" font-size="14.00">yes</text>
</g>
<!-- JsonEntitiesFromCodecs -->
<g id="node4" class="node">
<title>JsonEntitiesFromCodecs</title>
<polygon fill="none" stroke="black" points="313.28,-36 115.28,-36 115.28,0 313.28,0 313.28,-36"/>
<text text-anchor="middle" x="214.28" y="-14.3" font-family="mono" font-size="14.00">JsonEntitiesFromCodecs</text>
</g>
<!-- codec&#45;&gt;JsonEntitiesFromCodecs -->
<g id="edge3" class="edge">
<title>codec&#45;&gt;JsonEntitiesFromCodecs</title>
<path fill="none" stroke="black" d="M324.2,-88.21C303.38,-75.1 273.49,-56.28 250.14,-41.58"/>
<polygon fill="black" stroke="black" points="251.87,-38.53 241.54,-36.16 248.14,-44.45 251.87,-38.53"/>
<text text-anchor="middle" x="302.78" y="-57.8" font-family="Times,serif" font-size="14.00">yes</text>
</g>
<!-- JsonEntitiesFromEncodersAndDecoders -->
<g id="node5" class="node">
<title>JsonEntitiesFromEncodersAndDecoders</title>
<polygon fill="none" stroke="black" points="636.78,-36 331.78,-36 331.78,0 636.78,0 636.78,-36"/>
<text text-anchor="middle" x="484.28" y="-14.3" font-family="mono" font-size="14.00">JsonEntitiesFromEncodersAndDecoders</text>
</g>
<!-- codec&#45;&gt;JsonEntitiesFromEncodersAndDecoders -->
<g id="edge4" class="edge">
<title>codec&#45;&gt;JsonEntitiesFromEncodersAndDecoders</title>
<path fill="none" stroke="black" d="M374.36,-88.21C395.18,-75.1 425.07,-56.28 448.42,-41.58"/>
<polygon fill="black" stroke="black" points="450.42,-44.45 457.02,-36.16 446.69,-38.53 450.42,-44.45"/>
<text text-anchor="middle" x="434.28" y="-57.8" font-family="Times,serif" font-size="14.00">no</text>
</g>
</g>
</svg>
