<?xml version="1.0" encoding="UTF-8" standalone="no"?>
<!DOCTYPE svg PUBLIC "-//W3C//DTD SVG 1.1//EN"
 "http://www.w3.org/Graphics/SVG/1.1/DTD/svg11.dtd">
<!-- Generated by graphviz version 2.43.0 (0)
 -->
<!-- Title: %3 Pages: 1 -->
<svg width="623pt" height="116pt"
 viewBox="0.00 0.00 622.50 116.00" xmlns="http://www.w3.org/2000/svg" xmlns:xlink="http://www.w3.org/1999/xlink">
<g id="graph0" class="graph" transform="scale(1 1) rotate(0) translate(4 112)">
<title>%3</title>
<polygon fill="white" stroke="transparent" points="-4,4 -4,-112 618.5,-112 618.5,4 -4,4"/>
<!-- algebra -->
<g id="node1" class="node">
<title>algebra</title>
<polygon fill="none" stroke="black" points="402.5,-108 245.5,-108 245.5,-72 402.5,-72 402.5,-108"/>
<text text-anchor="middle" x="324" y="-86.3" font-family="mono" font-size="14.00">algebra.Endpoints</text>
</g>
<!-- playServer -->
<g id="node2" class="node">
<title>playServer</title>
<polygon fill="none" stroke="black" points="190,-36 0,-36 0,0 190,0 190,-36"/>
<text text-anchor="middle" x="95" y="-14.3" font-family="mono" font-size="14.00">play.server.Endpoints</text>
</g>
<!-- playServer&#45;&gt;algebra -->
<g id="edge1" class="edge">
<title>playServer&#45;&gt;algebra</title>
<path fill="none" stroke="black" d="M150.73,-36.03C183.14,-45.94 224.18,-58.49 258.18,-68.88"/>
<polygon fill="none" stroke="black" points="257.44,-72.31 268.02,-71.89 259.48,-65.62 257.44,-72.31"/>
</g>
<!-- pekkoClient -->
<g id="node3" class="node">
<title>pekkoClient</title>
<polygon fill="none" stroke="black" points="439.5,-36 208.5,-36 208.5,0 439.5,0 439.5,-36"/>
<text text-anchor="middle" x="324" y="-14.3" font-family="mono" font-size="14.00">pekkohttp.client.Endpoints</text>
</g>
<!-- pekkoClient&#45;&gt;algebra -->
<g id="edge2" class="edge">
<title>pekkoClient&#45;&gt;algebra</title>
<path fill="none" stroke="black" d="M324,-36.3C324,-44.02 324,-53.29 324,-61.89"/>
<polygon fill="none" stroke="black" points="320.5,-61.9 324,-71.9 327.5,-61.9 320.5,-61.9"/>
</g>
<!-- openapi -->
<g id="node4" class="node">
<title>openapi</title>
<polygon fill="none" stroke="black" points="614.5,-36 457.5,-36 457.5,0 614.5,0 614.5,-36"/>
<text text-anchor="middle" x="536" y="-14.3" font-family="mono" font-size="14.00">openapi.Endpoints</text>
</g>
<!-- openapi&#45;&gt;algebra -->
<g id="edge3" class="edge">
<title>openapi&#45;&gt;algebra</title>
<path fill="none" stroke="black" d="M484.41,-36.03C454.53,-45.9 416.74,-58.38 385.34,-68.75"/>
<polygon fill="none" stroke="black" points="384.22,-65.43 375.82,-71.89 386.41,-72.08 384.22,-65.43"/>
</g>
</g>
</svg>
