<?xml version="1.0" encoding="UTF-8" standalone="no"?>
<!DOCTYPE svg PUBLIC "-//W3C//DTD SVG 1.1//EN"
 "http://www.w3.org/Graphics/SVG/1.1/DTD/svg11.dtd">
<!-- Generated by graphviz version 2.43.0 (0)
 -->
<!-- Title: %3 Pages: 1 -->
<svg width="158pt" height="116pt"
 viewBox="0.00 0.00 158.00 116.00" xmlns="http://www.w3.org/2000/svg" xmlns:xlink="http://www.w3.org/1999/xlink">
<g id="graph0" class="graph" transform="scale(1 1) rotate(0) translate(4 112)">
<title>%3</title>
<polygon fill="white" stroke="transparent" points="-4,4 -4,-112 154,-112 154,4 -4,4"/>
<!-- server -->
<g id="node1" class="node">
<title>server</title>
<polygon fill="none" stroke="black" points="66,-36 0,-36 0,0 66,0 66,-36"/>
<text text-anchor="middle" x="33" y="-14.3" font-family="mono" font-size="14.00">server</text>
</g>
<!-- shared -->
<g id="node2" class="node">
<title>shared</title>
<polygon fill="none" stroke="black" points="108,-108 42,-108 42,-72 108,-72 108,-108"/>
<text text-anchor="middle" x="75" y="-86.3" font-family="mono" font-size="14.00">shared</text>
</g>
<!-- server&#45;&gt;shared -->
<g id="edge1" class="edge">
<title>server&#45;&gt;shared</title>
<path fill="none" stroke="black" stroke-dasharray="5,2" d="M43.38,-36.3C48.26,-44.44 54.19,-54.31 59.58,-63.3"/>
<polygon fill="black" stroke="black" points="56.59,-65.12 64.74,-71.9 62.59,-61.52 56.59,-65.12"/>
</g>
<!-- client -->
<g id="node3" class="node">
<title>client</title>
<polygon fill="none" stroke="black" points="150,-36 84,-36 84,0 150,0 150,-36"/>
<text text-anchor="middle" x="117" y="-14.3" font-family="mono" font-size="14.00">client</text>
</g>
<!-- client&#45;&gt;shared -->
<g id="edge2" class="edge">
<title>client&#45;&gt;shared</title>
<path fill="none" stroke="black" stroke-dasharray="5,2" d="M106.62,-36.3C101.74,-44.44 95.81,-54.31 90.42,-63.3"/>
<polygon fill="black" stroke="black" points="87.41,-61.52 85.26,-71.9 93.41,-65.12 87.41,-61.52"/>
</g>
</g>
</svg>
